<svg id="visual" viewBox="0 0 1920 1080" width="1920" height="1080" xmlns="http://www.w3.org/2000/svg" xmlns:xlink="http://www.w3.org/1999/xlink" version="1.1"><rect x="0" y="0" width="1920" height="1080" fill="#001220"></rect><path d="M0 742L20 757.2C40 772.3 80 802.7 120 818C160 833.3 200 833.7 240 831.5C280 829.3 320 824.7 360 804.7C400 784.7 440 749.3 480 750C520 750.7 560 787.3 600 788.8C640 790.3 680 756.7 720 748.2C760 739.7 800 756.3 840 761.2C880 766 920 759 960 754.3C1000 749.7 1040 747.3 1080 759.3C1120 771.3 1160 797.7 1200 804C1240 810.3 1280 796.7 1320 795.5C1360 794.3 1400 805.7 1440 811.7C1480 817.7 1520 818.3 1560 816.3C1600 814.3 1640 809.7 1680 806.3C1720 803 1760 801 1800 793.7C1840 786.3 1880 773.7 1900 767.3L1920 761L1920 1081L1900 1081C1880 1081 1840 1081 1800 1081C1760 1081 1720 1081 1680 1081C1640 1081 1600 1081 1560 1081C1520 1081 1480 1081 1440 1081C1400 1081 1360 1081 1320 1081C1280 1081 1240 1081 1200 1081C1160 1081 1120 1081 1080 1081C1040 1081 1000 1081 960 1081C920 1081 880 1081 840 1081C800 1081 760 1081 720 1081C680 1081 640 1081 600 1081C560 1081 520 1081 480 1081C440 1081 400 1081 360 1081C320 1081 280 1081 240 1081C200 1081 160 1081 120 1081C80 1081 40 1081 20 1081L0 1081Z" fill="#354259"></path><path d="M0 760L20 761C40 762 80 764 120 763C160 762 200 758 240 765.3C280 772.7 320 791.3 360 800.7C400 810 440 810 480 813.7C520 817.3 560 824.7 600 818.7C640 812.7 680 793.3 720 785.8C760 778.3 800 782.7 840 783.2C880 783.7 920 780.3 960 787.8C1000 795.3 1040 813.7 1080 819.5C1120 825.3 1160 818.7 1200 807.5C1240 796.3 1280 780.7 1320 787C1360 793.3 1400 821.7 1440 820.8C1480 820 1520 790 1560 783C1600 776 1640 792 1680 796.7C1720 801.3 1760 794.7 1800 794.2C1840 793.7 1880 799.3 1900 802.2L1920 805L1920 1081L1900 1081C1880 1081 1840 1081 1800 1081C1760 1081 1720 1081 1680 1081C1640 1081 1600 1081 1560 1081C1520 1081 1480 1081 1440 1081C1400 1081 1360 1081 1320 1081C1280 1081 1240 1081 1200 1081C1160 1081 1120 1081 1080 1081C1040 1081 1000 1081 960 1081C920 1081 880 1081 840 1081C800 1081 760 1081 720 1081C680 1081 640 1081 600 1081C560 1081 520 1081 480 1081C440 1081 400 1081 360 1081C320 1081 280 1081 240 1081C200 1081 160 1081 120 1081C80 1081 40 1081 20 1081L0 1081Z" fill="#443c63"></path><path d="M0 847L20 840.7C40 834.3 80 821.7 120 810.8C160 800 200 791 240 789.5C280 788 320 794 360 803C400 812 440 824 480 820.3C520 816.7 560 797.3 600 789.5C640 781.7 680 785.3 720 795.2C760 805 800 821 840 822.5C880 824 920 811 960 802.7C1000 794.3 1040 790.7 1080 801C1120 811.3 1160 835.7 1200 846.7C1240 857.7 1280 855.3 1320 843C1360 830.7 1400 808.3 1440 807C1480 805.7 1520 825.3 1560 829C1600 832.7 1640 820.3 1680 817.8C1720 815.3 1760 822.7 1800 832.3C1840 842 1880 854 1900 860L1920 866L1920 1081L1900 1081C1880 1081 1840 1081 1800 1081C1760 1081 1720 1081 1680 1081C1640 1081 1600 1081 1560 1081C1520 1081 1480 1081 1440 1081C1400 1081 1360 1081 1320 1081C1280 1081 1240 1081 1200 1081C1160 1081 1120 1081 1080 1081C1040 1081 1000 1081 960 1081C920 1081 880 1081 840 1081C800 1081 760 1081 720 1081C680 1081 640 1081 600 1081C560 1081 520 1081 480 1081C440 1081 400 1081 360 1081C320 1081 280 1081 240 1081C200 1081 160 1081 120 1081C80 1081 40 1081 20 1081L0 1081Z" fill="#613060"></path><path d="M0 850L20 841.5C40 833 80 816 120 807.2C160 798.3 200 797.7 240 797.8C280 798 320 799 360 804.5C400 810 440 820 480 831C520 842 560 854 600 863.2C640 872.3 680 878.7 720 873.5C760 868.3 800 851.7 840 844.7C880 837.7 920 840.3 960 848.2C1000 856 1040 869 1080 873.8C1120 878.7 1160 875.3 1200 876.2C1240 877 1280 882 1320 874.8C1360 867.7 1400 848.3 1440 848.2C1480 848 1520 867 1560 869C1600 871 1640 856 1680 850.3C1720 844.7 1760 848.3 1800 855.2C1840 862 1880 872 1900 877L1920 882L1920 1081L1900 1081C1880 1081 1840 1081 1800 1081C1760 1081 1720 1081 1680 1081C1640 1081 1600 1081 1560 1081C1520 1081 1480 1081 1440 1081C1400 1081 1360 1081 1320 1081C1280 1081 1240 1081 1200 1081C1160 1081 1120 1081 1080 1081C1040 1081 1000 1081 960 1081C920 1081 880 1081 840 1081C800 1081 760 1081 720 1081C680 1081 640 1081 600 1081C560 1081 520 1081 480 1081C440 1081 400 1081 360 1081C320 1081 280 1081 240 1081C200 1081 160 1081 120 1081C80 1081 40 1081 20 1081L0 1081Z" fill="#7c194b"></path><path d="M0 834L20 846.3C40 858.7 80 883.3 120 892.7C160 902 200 896 240 884.2C280 872.3 320 854.7 360 849.2C400 843.7 440 850.3 480 852C520 853.7 560 850.3 600 853.3C640 856.3 680 865.7 720 875.3C760 885 800 895 840 892.3C880 889.7 920 874.3 960 868C1000 861.7 1040 864.3 1080 869.5C1120 874.7 1160 882.3 1200 877.5C1240 872.7 1280 855.3 1320 857.2C1360 859 1400 880 1440 883.3C1480 886.7 1520 872.3 1560 860.5C1600 848.7 1640 839.3 1680 834.5C1720 829.7 1760 829.3 1800 829.3C1840 829.3 1880 829.7 1900 829.8L1920 830L1920 1081L1900 1081C1880 1081 1840 1081 1800 1081C1760 1081 1720 1081 1680 1081C1640 1081 1600 1081 1560 1081C1520 1081 1480 1081 1440 1081C1400 1081 1360 1081 1320 1081C1280 1081 1240 1081 1200 1081C1160 1081 1120 1081 1080 1081C1040 1081 1000 1081 960 1081C920 1081 880 1081 840 1081C800 1081 760 1081 720 1081C680 1081 640 1081 600 1081C560 1081 520 1081 480 1081C440 1081 400 1081 360 1081C320 1081 280 1081 240 1081C200 1081 160 1081 120 1081C80 1081 40 1081 20 1081L0 1081Z" fill="#8b0028"></path><path d="M0 904L20 904.7C40 905.3 80 906.7 120 899.2C160 891.7 200 875.3 240 879.8C280 884.3 320 909.7 360 913.7C400 917.7 440 900.3 480 889.8C520 879.3 560 875.7 600 881.5C640 887.3 680 902.7 720 905.5C760 908.3 800 898.7 840 888.5C880 878.3 920 867.7 960 867.5C1000 867.3 1040 877.7 1080 885.3C1120 893 1160 898 1200 894.5C1240 891 1280 879 1320 877.3C1360 875.7 1400 884.3 1440 894.2C1480 904 1520 915 1560 917.5C1600 920 1640 914 1680 906.5C1720 899 1760 890 1800 886.7C1840 883.3 1880 885.7 1900 886.8L1920 888L1920 1081L1900 1081C1880 1081 1840 1081 1800 1081C1760 1081 1720 1081 1680 1081C1640 1081 1600 1081 1560 1081C1520 1081 1480 1081 1440 1081C1400 1081 1360 1081 1320 1081C1280 1081 1240 1081 1200 1081C1160 1081 1120 1081 1080 1081C1040 1081 1000 1081 960 1081C920 1081 880 1081 840 1081C800 1081 760 1081 720 1081C680 1081 640 1081 600 1081C560 1081 520 1081 480 1081C440 1081 400 1081 360 1081C320 1081 280 1081 240 1081C200 1081 160 1081 120 1081C80 1081 40 1081 20 1081L0 1081Z" fill="#8b0216"></path><path d="M0 885L20 889.5C40 894 80 903 120 908C160 913 200 914 240 917.8C280 921.7 320 928.3 360 924.7C400 921 440 907 480 909.2C520 911.3 560 929.7 600 939.7C640 949.7 680 951.3 720 944.3C760 937.3 800 921.7 840 910.7C880 899.7 920 893.3 960 901.2C1000 909 1040 931 1080 931.2C1120 931.3 1160 909.7 1200 898.5C1240 887.3 1280 886.7 1320 898.3C1360 910 1400 934 1440 934.5C1480 935 1520 912 1560 904C1600 896 1640 903 1680 907.7C1720 912.3 1760 914.7 1800 910.5C1840 906.3 1880 895.7 1900 890.3L1920 885L1920 1081L1900 1081C1880 1081 1840 1081 1800 1081C1760 1081 1720 1081 1680 1081C1640 1081 1600 1081 1560 1081C1520 1081 1480 1081 1440 1081C1400 1081 1360 1081 1320 1081C1280 1081 1240 1081 1200 1081C1160 1081 1120 1081 1080 1081C1040 1081 1000 1081 960 1081C920 1081 880 1081 840 1081C800 1081 760 1081 720 1081C680 1081 640 1081 600 1081C560 1081 520 1081 480 1081C440 1081 400 1081 360 1081C320 1081 280 1081 240 1081C200 1081 160 1081 120 1081C80 1081 40 1081 20 1081L0 1081Z" fill="#8b0216"></path><path d="M0 944L20 947.3C40 950.7 80 957.3 120 955.8C160 954.3 200 944.7 240 940.8C280 937 320 939 360 938C400 937 440 933 480 933.7C520 934.3 560 939.7 600 938.3C640 937 680 929 720 927.8C760 926.7 800 932.3 840 941.3C880 950.3 920 962.7 960 968.7C1000 974.7 1040 974.3 1080 973C1120 971.7 1160 969.3 1200 967.2C1240 965 1280 963 1320 957.2C1360 951.3 1400 941.7 1440 934.7C1480 927.7 1520 923.3 1560 928.2C1600 933 1640 947 1680 950.8C1720 954.7 1760 948.3 1800 940.3C1840 932.3 1880 922.7 1900 917.8L1920 913L1920 1081L1900 1081C1880 1081 1840 1081 1800 1081C1760 1081 1720 1081 1680 1081C1640 1081 1600 1081 1560 1081C1520 1081 1480 1081 1440 1081C1400 1081 1360 1081 1320 1081C1280 1081 1240 1081 1200 1081C1160 1081 1120 1081 1080 1081C1040 1081 1000 1081 960 1081C920 1081 880 1081 840 1081C800 1081 760 1081 720 1081C680 1081 640 1081 600 1081C560 1081 520 1081 480 1081C440 1081 400 1081 360 1081C320 1081 280 1081 240 1081C200 1081 160 1081 120 1081C80 1081 40 1081 20 1081L0 1081Z" fill="#8b0028"></path><path d="M0 998L20 995.3C40 992.7 80 987.3 120 978.2C160 969 200 956 240 952C280 948 320 953 360 955.7C400 958.3 440 958.7 480 959.5C520 960.3 560 961.7 600 965.8C640 970 680 977 720 977C760 977 800 970 840 963.3C880 956.7 920 950.3 960 952.7C1000 955 1040 966 1080 972C1120 978 1160 979 1200 973.2C1240 967.3 1280 954.7 1320 950.5C1360 946.3 1400 950.7 1440 959.8C1480 969 1520 983 1560 984.5C1600 986 1640 975 1680 968C1720 961 1760 958 1800 954.5C1840 951 1880 947 1900 945L1920 943L1920 1081L1900 1081C1880 1081 1840 1081 1800 1081C1760 1081 1720 1081 1680 1081C1640 1081 1600 1081 1560 1081C1520 1081 1480 1081 1440 1081C1400 1081 1360 1081 1320 1081C1280 1081 1240 1081 1200 1081C1160 1081 1120 1081 1080 1081C1040 1081 1000 1081 960 1081C920 1081 880 1081 840 1081C800 1081 760 1081 720 1081C680 1081 640 1081 600 1081C560 1081 520 1081 480 1081C440 1081 400 1081 360 1081C320 1081 280 1081 240 1081C200 1081 160 1081 120 1081C80 1081 40 1081 20 1081L0 1081Z" fill="#7c194b"></path><path d="M0 996L20 998.3C40 1000.7 80 1005.3 120 1005.5C160 1005.7 200 1001.3 240 1001.7C280 1002 320 1007 360 1010.2C400 1013.3 440 1014.7 480 1011.2C520 1007.7 560 999.3 600 995.5C640 991.7 680 992.3 720 991.3C760 990.3 800 987.7 840 984.7C880 981.7 920 978.3 960 982.3C1000 986.3 1040 997.7 1080 997.2C1120 996.7 1160 984.3 1200 985.5C1240 986.7 1280 1001.3 1320 1005.8C1360 1010.3 1400 1004.7 1440 1005C1480 1005.3 1520 1011.7 1560 1007.2C1600 1002.7 1640 987.3 1680 982.8C1720 978.3 1760 984.7 1800 991.2C1840 997.7 1880 1004.3 1900 1007.7L1920 1011L1920 1081L1900 1081C1880 1081 1840 1081 1800 1081C1760 1081 1720 1081 1680 1081C1640 1081 1600 1081 1560 1081C1520 1081 1480 1081 1440 1081C1400 1081 1360 1081 1320 1081C1280 1081 1240 1081 1200 1081C1160 1081 1120 1081 1080 1081C1040 1081 1000 1081 960 1081C920 1081 880 1081 840 1081C800 1081 760 1081 720 1081C680 1081 640 1081 600 1081C560 1081 520 1081 480 1081C440 1081 400 1081 360 1081C320 1081 280 1081 240 1081C200 1081 160 1081 120 1081C80 1081 40 1081 20 1081L0 1081Z" fill="#613060"></path><path d="M0 1033L20 1033.3C40 1033.7 80 1034.3 120 1029.2C160 1024 200 1013 240 1007.8C280 1002.7 320 1003.3 360 1006.5C400 1009.7 440 1015.3 480 1017.2C520 1019 560 1017 600 1018.8C640 1020.7 680 1026.3 720 1030.7C760 1035 800 1038 840 1038.3C880 1038.7 920 1036.3 960 1032C1000 1027.7 1040 1021.3 1080 1019.5C1120 1017.7 1160 1020.3 1200 1019C1240 1017.7 1280 1012.3 1320 1009C1360 1005.7 1400 1004.3 1440 1003.8C1480 1003.3 1520 1003.7 1560 1007.7C1600 1011.7 1640 1019.3 1680 1024.8C1720 1030.3 1760 1033.7 1800 1032.3C1840 1031 1880 1025 1900 1022L1920 1019L1920 1081L1900 1081C1880 1081 1840 1081 1800 1081C1760 1081 1720 1081 1680 1081C1640 1081 1600 1081 1560 1081C1520 1081 1480 1081 1440 1081C1400 1081 1360 1081 1320 1081C1280 1081 1240 1081 1200 1081C1160 1081 1120 1081 1080 1081C1040 1081 1000 1081 960 1081C920 1081 880 1081 840 1081C800 1081 760 1081 720 1081C680 1081 640 1081 600 1081C560 1081 520 1081 480 1081C440 1081 400 1081 360 1081C320 1081 280 1081 240 1081C200 1081 160 1081 120 1081C80 1081 40 1081 20 1081L0 1081Z" fill="#443c63"></path><path d="M0 1059L20 1058.3C40 1057.7 80 1056.3 120 1052.5C160 1048.7 200 1042.3 240 1042.8C280 1043.3 320 1050.7 360 1051.5C400 1052.3 440 1046.7 480 1043.8C520 1041 560 1041 600 1040.5C640 1040 680 1039 720 1040.5C760 1042 800 1046 840 1047.8C880 1049.7 920 1049.3 960 1047C1000 1044.7 1040 1040.3 1080 1039C1120 1037.7 1160 1039.3 1200 1039.2C1240 1039 1280 1037 1320 1036.2C1360 1035.3 1400 1035.7 1440 1039.2C1480 1042.7 1520 1049.3 1560 1050.5C1600 1051.7 1640 1047.3 1680 1047.5C1720 1047.7 1760 1052.3 1800 1055.2C1840 1058 1880 1059 1900 1059.5L1920 1060L1920 1081L1900 1081C1880 1081 1840 1081 1800 1081C1760 1081 1720 1081 1680 1081C1640 1081 1600 1081 1560 1081C1520 1081 1480 1081 1440 1081C1400 1081 1360 1081 1320 1081C1280 1081 1240 1081 1200 1081C1160 1081 1120 1081 1080 1081C1040 1081 1000 1081 960 1081C920 1081 880 1081 840 1081C800 1081 760 1081 720 1081C680 1081 640 1081 600 1081C560 1081 520 1081 480 1081C440 1081 400 1081 360 1081C320 1081 280 1081 240 1081C200 1081 160 1081 120 1081C80 1081 40 1081 20 1081L0 1081Z" fill="#354259"></path></svg>