<svg id="visual" viewBox="0 0 1920 1080" width="1920" height="1080" xmlns="http://www.w3.org/2000/svg" xmlns:xlink="http://www.w3.org/1999/xlink" version="1.1"><rect x="0" y="0" width="1920" height="1080" fill="#354259"></rect><path d="M777 0L744.7 25.7C712.3 51.3 647.7 102.7 625.2 154.2C602.7 205.7 622.3 257.3 615.3 308.8C608.3 360.3 574.7 411.7 580.7 463C586.7 514.3 632.3 565.7 635.8 617C639.3 668.3 600.7 719.7 595.3 771.2C590 822.7 618 874.3 654 925.8C690 977.3 734 1028.7 756 1054.3L778 1080L0 1080L0 1054.3C0 1028.7 0 977.3 0 925.8C0 874.3 0 822.7 0 771.2C0 719.7 0 668.3 0 617C0 565.7 0 514.3 0 463C0 411.7 0 360.3 0 308.8C0 257.3 0 205.7 0 154.2C0 102.7 0 51.3 0 25.7L0 0Z" fill="#cdc2ae"></path><path d="M626 0L604.5 25.7C583 51.3 540 102.7 545 154.2C550 205.7 603 257.3 612.2 308.8C621.3 360.3 586.7 411.7 573.3 463C560 514.3 568 565.7 573 617C578 668.3 580 719.7 574.5 771.2C569 822.7 556 874.3 565.2 925.8C574.3 977.3 605.7 1028.7 621.3 1054.3L637 1080L0 1080L0 1054.3C0 1028.7 0 977.3 0 925.8C0 874.3 0 822.7 0 771.2C0 719.7 0 668.3 0 617C0 565.7 0 514.3 0 463C0 411.7 0 360.3 0 308.8C0 257.3 0 205.7 0 154.2C0 102.7 0 51.3 0 25.7L0 0Z" fill="#d5cab4"></path><path d="M442 0L452.3 25.7C462.7 51.3 483.3 102.7 477.2 154.2C471 205.7 438 257.3 404 308.8C370 360.3 335 411.7 322.5 463C310 514.3 320 565.7 321.8 617C323.7 668.3 317.3 719.7 325.5 771.2C333.7 822.7 356.3 874.3 369.2 925.8C382 977.3 385 1028.7 386.5 1054.3L388 1080L0 1080L0 1054.3C0 1028.7 0 977.3 0 925.8C0 874.3 0 822.7 0 771.2C0 719.7 0 668.3 0 617C0 565.7 0 514.3 0 463C0 411.7 0 360.3 0 308.8C0 257.3 0 205.7 0 154.2C0 102.7 0 51.3 0 25.7L0 0Z" fill="#ddd3ba"></path><path d="M321 0L315.7 25.7C310.3 51.3 299.7 102.7 297.3 154.2C295 205.7 301 257.3 288.2 308.8C275.3 360.3 243.7 411.7 251.7 463C259.7 514.3 307.3 565.7 322.3 617C337.3 668.3 319.7 719.7 317.7 771.2C315.7 822.7 329.3 874.3 318 925.8C306.7 977.3 270.3 1028.7 252.2 1054.3L234 1080L0 1080L0 1054.3C0 1028.7 0 977.3 0 925.8C0 874.3 0 822.7 0 771.2C0 719.7 0 668.3 0 617C0 565.7 0 514.3 0 463C0 411.7 0 360.3 0 308.8C0 257.3 0 205.7 0 154.2C0 102.7 0 51.3 0 25.7L0 0Z" fill="#e5dcc0"></path><path d="M231 0L217 25.7C203 51.3 175 102.7 168.3 154.2C161.7 205.7 176.3 257.3 170.5 308.8C164.7 360.3 138.3 411.7 137 463C135.7 514.3 159.3 565.7 163.2 617C167 668.3 151 719.7 134.5 771.2C118 822.7 101 874.3 115.8 925.8C130.7 977.3 177.3 1028.7 200.7 1054.3L224 1080L0 1080L0 1054.3C0 1028.7 0 977.3 0 925.8C0 874.3 0 822.7 0 771.2C0 719.7 0 668.3 0 617C0 565.7 0 514.3 0 463C0 411.7 0 360.3 0 308.8C0 257.3 0 205.7 0 154.2C0 102.7 0 51.3 0 25.7L0 0Z" fill="#ece5c7"></path></svg>