<svg id="visual" viewBox="0 0 1920 1080" width="1920" height="1080" xmlns="http://www.w3.org/2000/svg" xmlns:xlink="http://www.w3.org/1999/xlink" version="1.1"><rect x="0" y="0" width="1920" height="1080" fill="#525E75"></rect><path d="M789 0L765.3 22.5C741.7 45 694.3 90 680 135C665.7 180 684.3 225 694.7 270C705 315 707 360 721.5 405C736 450 763 495 779.8 540C796.7 585 803.3 630 798.2 675C793 720 776 765 746 810C716 855 673 900 683.2 945C693.3 990 756.7 1035 788.3 1057.5L820 1080L0 1080L0 1057.5C0 1035 0 990 0 945C0 900 0 855 0 810C0 765 0 720 0 675C0 630 0 585 0 540C0 495 0 450 0 405C0 360 0 315 0 270C0 225 0 180 0 135C0 90 0 45 0 22.5L0 0Z" fill="#7882a4"></path><path d="M742 0L711.3 22.5C680.7 45 619.3 90 600.7 135C582 180 606 225 624.5 270C643 315 656 360 660.3 405C664.7 450 660.3 495 655.2 540C650 585 644 630 651.3 675C658.7 720 679.3 765 670.7 810C662 855 624 900 598.3 945C572.7 990 559.3 1035 552.7 1057.5L546 1080L0 1080L0 1057.5C0 1035 0 990 0 945C0 900 0 855 0 810C0 765 0 720 0 675C0 630 0 585 0 540C0 495 0 450 0 405C0 360 0 315 0 270C0 225 0 180 0 135C0 90 0 45 0 22.5L0 0Z" fill="#6f91b1"></path><path d="M649 0L618.5 22.5C588 45 527 90 509.5 135C492 180 518 225 541.7 270C565.3 315 586.7 360 590 405C593.3 450 578.7 495 567.5 540C556.3 585 548.7 630 536.7 675C524.7 720 508.3 765 503 810C497.7 855 503.3 900 498.2 945C493 990 477 1035 469 1057.5L461 1080L0 1080L0 1057.5C0 1035 0 990 0 945C0 900 0 855 0 810C0 765 0 720 0 675C0 630 0 585 0 540C0 495 0 450 0 405C0 360 0 315 0 270C0 225 0 180 0 135C0 90 0 45 0 22.5L0 0Z" fill="#699fb8"></path><path d="M474 0L475.5 22.5C477 45 480 90 472.3 135C464.7 180 446.3 225 451.3 270C456.3 315 484.7 360 491.7 405C498.7 450 484.3 495 486.7 540C489 585 508 630 521.2 675C534.3 720 541.7 765 531.7 810C521.7 855 494.3 900 483.7 945C473 990 479 1035 482 1057.5L485 1080L0 1080L0 1057.5C0 1035 0 990 0 945C0 900 0 855 0 810C0 765 0 720 0 675C0 630 0 585 0 540C0 495 0 450 0 405C0 360 0 315 0 270C0 225 0 180 0 135C0 90 0 45 0 22.5L0 0Z" fill="#69adba"></path><path d="M386 0L397.5 22.5C409 45 432 90 445.2 135C458.3 180 461.7 225 458.3 270C455 315 445 360 431.2 405C417.3 450 399.7 495 396 540C392.3 585 402.7 630 412 675C421.3 720 429.7 765 440.5 810C451.3 855 464.7 900 469.2 945C473.7 990 469.3 1035 467.2 1057.5L465 1080L0 1080L0 1057.5C0 1035 0 990 0 945C0 900 0 855 0 810C0 765 0 720 0 675C0 630 0 585 0 540C0 495 0 450 0 405C0 360 0 315 0 270C0 225 0 180 0 135C0 90 0 45 0 22.5L0 0Z" fill="#73bab7"></path><path d="M333 0L335.7 22.5C338.3 45 343.7 90 344.3 135C345 180 341 225 326.7 270C312.3 315 287.7 360 281.8 405C276 450 289 495 300.7 540C312.3 585 322.7 630 320.2 675C317.7 720 302.3 765 306 810C309.7 855 332.3 900 350.3 945C368.3 990 381.7 1035 388.3 1057.5L395 1080L0 1080L0 1057.5C0 1035 0 990 0 945C0 900 0 855 0 810C0 765 0 720 0 675C0 630 0 585 0 540C0 495 0 450 0 405C0 360 0 315 0 270C0 225 0 180 0 135C0 90 0 45 0 22.5L0 0Z" fill="#87c5b1"></path><path d="M306 0L292 22.5C278 45 250 90 239.3 135C228.7 180 235.3 225 248.2 270C261 315 280 360 282.5 405C285 450 271 495 258 540C245 585 233 630 239.5 675C246 720 271 765 277.2 810C283.3 855 270.7 900 260.8 945C251 990 244 1035 240.5 1057.5L237 1080L0 1080L0 1057.5C0 1035 0 990 0 945C0 900 0 855 0 810C0 765 0 720 0 675C0 630 0 585 0 540C0 495 0 450 0 405C0 360 0 315 0 270C0 225 0 180 0 135C0 90 0 45 0 22.5L0 0Z" fill="#a2cfab"></path><path d="M190 0L192.7 22.5C195.3 45 200.7 90 204.2 135C207.7 180 209.3 225 195.7 270C182 315 153 360 142.8 405C132.7 450 141.3 495 150.2 540C159 585 168 630 165.8 675C163.7 720 150.3 765 155 810C159.7 855 182.3 900 188.5 945C194.7 990 184.3 1035 179.2 1057.5L174 1080L0 1080L0 1057.5C0 1035 0 990 0 945C0 900 0 855 0 810C0 765 0 720 0 675C0 630 0 585 0 540C0 495 0 450 0 405C0 360 0 315 0 270C0 225 0 180 0 135C0 90 0 45 0 22.5L0 0Z" fill="#c1d8a8"></path><path d="M69 0L67.2 22.5C65.3 45 61.7 90 71 135C80.3 180 102.7 225 107.8 270C113 315 101 360 98.2 405C95.3 450 101.7 495 107.2 540C112.7 585 117.3 630 114.5 675C111.7 720 101.3 765 104 810C106.7 855 122.3 900 125.8 945C129.3 990 120.7 1035 116.3 1057.5L112 1080L0 1080L0 1057.5C0 1035 0 990 0 945C0 900 0 855 0 810C0 765 0 720 0 675C0 630 0 585 0 540C0 495 0 450 0 405C0 360 0 315 0 270C0 225 0 180 0 135C0 90 0 45 0 22.5L0 0Z" fill="#e2dea9"></path></svg>